<mxfile host="app.diagrams.net" modified="2023-04-03T05:36:58.467Z" agent="Mozilla/5.0 (Windows NT 10.0; Win64; x64) AppleWebKit/537.36 (KHTML, like Gecko) Chrome/111.0.0.0 Safari/537.36" version="21.1.2" etag="-5iHiGCqywBVppH2Ih6g" type="github">
  <diagram name="Page-1" id="HrtkV_2TJ7zZJBn_xhIz">
    <mxGraphModel>
      <root>
        <mxCell id="0" />
        <mxCell id="1" parent="0" />
      </root>
    </mxGraphModel>
  </diagram>
</mxfile>
